<?xml version="1.0" encoding="UTF-8"?>
<svg id="Layer_1" data-name="Layer 1" xmlns="http://www.w3.org/2000/svg" viewBox="0 0 408.37 97.66">
  <defs>
    <style>
      .cls-1 {
        fill: #fff;
      }

      .cls-2 {
        fill: none;
        stroke: #ce0b0b;
        stroke-linecap: round;
        stroke-miterlimit: 10;
        stroke-width: 4px;
      }
    </style>
  </defs>
  <polyline class="cls-2" points="332.31 4.04 368.75 47.96 331.66 92.66"/>
  <polyline class="cls-2" points="363.22 4.04 399.66 47.96 362.57 92.66"/>
  <g>
    <path class="cls-1" d="M1.22,66.49V29.78h27.51v3.56H5.11v14.03h22.79v3.51H5.11v15.62H1.22Z"/>
    <path class="cls-1" d="M32.56,48.13c0-11.45,7.62-18.9,18.52-18.9s18.63,7.45,18.63,18.9-7.62,18.9-18.63,18.9-18.52-7.45-18.52-18.9ZM65.6,48.13c0-9.97-5.21-15.12-14.52-15.12s-14.41,5.15-14.41,15.12,5.15,15.12,14.41,15.12,14.52-5.15,14.52-15.12Z"/>
    <path class="cls-1" d="M75.09,66.49V29.78h17.97c7.67,0,12.88,3.89,12.88,10.63,0,6.19-4.55,10.03-11.34,10.19v.27c2.41.66,3.78,2.25,5.04,4.38l6.9,11.23h-4.49l-6.52-10.63c-1.86-3.07-3.78-4.38-8.66-4.38h-7.89v15.01h-3.89ZM78.98,48.35h14.03c5.81,0,8.88-2.3,8.88-7.51s-3.07-7.51-8.88-7.51h-14.03v15.01Z"/>
    <path class="cls-1" d="M111.04,66.49V29.78h27.89v3.56h-24v12.93h23.18v3.51h-23.18v13.15h24v3.56h-27.89Z"/>
    <path class="cls-1" d="M144.35,66.49V29.78h4.27l19.23,24.93,4.44,6.14h.33l-.11-6.03v-25.04h3.89v36.71h-4.27l-19.12-24.66-4.6-6.19h-.27l.11,6.14v24.71h-3.89Z"/>
    <path class="cls-1" d="M181.34,54.87v-.33h3.95v.71c0,5.26,3.29,8.11,11.89,8.11,7.34,0,10.69-2.03,10.69-6.19s-2.47-5.59-7.84-6.68l-7.78-1.48c-5.97-1.15-10.74-3.67-10.74-9.75,0-4.99,4.27-10.03,14.79-10.03s14.96,5.48,14.96,12.16v.33h-3.95v-.66c0-5.31-3.29-8.16-11.29-8.16-7.29,0-10.58,2.08-10.58,6.08s2.41,5.42,7.84,6.58l7.73,1.53c6.58,1.26,10.79,4.05,10.79,9.75,0,5.26-4.44,10.19-14.63,10.19-10.79,0-15.84-5.15-15.84-12.16Z"/>
    <path class="cls-1" d="M218.4,66.49v-7.62h4.82v7.62h-4.82Z"/>
    <path class="cls-1" d="M242.12,66.49v-33.15h-15.12v-3.56h34.08v3.56h-15.07v33.15h-3.89Z"/>
    <path class="cls-1" d="M264.97,66.49V29.78h27.89v3.56h-24v12.93h23.18v3.51h-23.18v13.15h24v3.56h-27.89Z"/>
    <path class="cls-1" d="M296.91,48.13c0-11.45,7.56-18.9,18.3-18.9,9.48,0,16.66,5.31,16.66,13.64v.66h-4.22v-.66c0-6.25-4.33-9.86-12.38-9.86-9.15,0-14.25,5.15-14.25,15.12s5.1,15.12,14.25,15.12c8.05,0,12.38-3.62,12.38-9.86v-.66h4.22v.66c0,8.33-7.12,13.64-16.66,13.64-10.74,0-18.3-7.45-18.3-18.9Z"/>
    <path class="cls-1" d="M337.08,66.49V29.78h3.89v16.44h23.62v-16.44h3.89v36.71h-3.89v-16.71h-23.62v16.71h-3.89Z"/>
  </g>
</svg>