<svg width="1643" height="1001" viewBox="0 0 1643 1001" fill="none" xmlns="http://www.w3.org/2000/svg">
<path fill-rule="evenodd" clip-rule="evenodd" d="M847.464 55C847.464 24.6244 872.089 0 902.464 0H1588C1618.38 0 1643 24.6243 1643 55V946C1643 976.376 1618.38 1001 1588 1001H880.65C862.322 1001 847.464 986.142 847.464 967.814V967.814C847.464 949.486 832.606 934.628 814.278 934.628H373.431C343.055 934.628 318.431 910.004 318.431 879.628V678.655C318.431 648.279 293.806 623.655 263.431 623.655H55.8699C25.4942 623.655 0.869873 599.03 0.869873 568.655V167.317C0.869873 136.941 25.4943 112.317 55.8699 112.317H701.728C701.785 112.317 701.831 112.363 701.831 112.421V112.421C701.831 112.478 701.878 112.524 701.935 112.524H792.464C822.84 112.524 847.464 87.8999 847.464 57.5242V55Z" fill="white"/>
</svg>
