<svg width="1361" height="887" viewBox="0 0 1361 887" fill="none" xmlns="http://www.w3.org/2000/svg">
<path fill-rule="evenodd" clip-rule="evenodd" d="M701.659 49.8545C701.659 22.3206 723.98 0 751.513 0H1306C1336.38 0 1361 24.6243 1361 55V832C1361 862.376 1336.38 887 1306 887H731.066C714.825 887 701.659 873.834 701.659 857.593V857.593C701.659 841.352 688.493 828.187 672.252 828.187H318.195C287.819 828.187 263.195 803.562 263.195 773.187V607.629C263.195 577.253 238.57 552.629 208.195 552.629H55C24.6243 552.629 0 528.005 0 497.629V154.526C0 124.15 24.6244 99.5256 55.0001 99.5256H580.866C580.917 99.5256 580.958 99.5666 580.958 99.6173V99.6173C580.958 99.668 580.999 99.7091 581.05 99.7091H651.804C679.338 99.7091 701.659 77.3884 701.659 49.8545V49.8545Z" fill="white"/>
</svg>
