<svg width="1361" height="836" viewBox="0 0 1361 836" fill="none" xmlns="http://www.w3.org/2000/svg">
<path fill-rule="evenodd" clip-rule="evenodd" d="M701.659 46.988C701.659 21.0372 722.696 0 748.647 0H1306C1336.38 0 1361 24.6243 1361 55V781C1361 811.376 1336.38 836 1306 836H729.375C714.068 836 701.659 823.591 701.659 808.284V808.284C701.659 792.977 689.25 780.568 673.943 780.568H318.195C287.819 780.568 263.195 755.944 263.195 725.568V575.854C263.195 545.479 238.57 520.854 208.195 520.854H55C24.6243 520.854 0 496.23 0 465.854V148.803C0 118.428 24.6244 93.8032 55.0001 93.8032H580.872C580.919 93.8032 580.958 93.8419 580.958 93.8896V93.8896C580.958 93.9373 580.997 93.976 581.044 93.976H654.671C680.622 93.976 701.659 72.9388 701.659 46.988V46.988Z" fill="white"/>
</svg>
